<svg xmlns="http://www.w3.org/2000/svg" width="45" height="45" fill="none"><path fill="#F13C6E" fill-rule="evenodd" d="M22.5 43a20.5 20.5 0 1 0 0-41 20.5 20.5 0 0 0 0 41Zm0 2a22.5 22.5 0 1 0 0-45 22.5 22.5 0 0 0 0 45Z" clip-rule="evenodd"/><g fill="#F13C6E" clip-path="url(#a)"><path d="M26.1 12H18C14 12 11 15 11 18.9V27c0 3.8 3 6.9 6.9 6.9H26c3.8 0 6.9-3 6.9-6.9V19c0-3.8-3-6.9-6.9-6.9ZM31 27.1c0 2.7-2.1 4.8-4.8 4.8H18a4.8 4.8 0 0 1-4.8-4.8V19c0-2.7 2.1-4.8 4.8-4.8H26c2.7 0 4.8 2.1 4.8 4.8V27Z"/><path d="M22 17.5a5.5 5.5 0 1 0 0 11 5.5 5.5 0 0 0 0-11Zm0 9a3.4 3.4 0 1 1 0-7 3.4 3.4 0 0 1 0 7ZM28 17.8a.7.7 0 1 0 0-1.4.7.7 0 0 0 0 1.4Z"/></g><defs><clipPath id="a"><path fill="#fff" d="M11 12h22v22H11z"/></clipPath></defs></svg>