<svg xmlns="http://www.w3.org/2000/svg" width="254" height="79" fill="none"><g clip-path="url(#a)"><path fill="#F13C6E" d="M57.2 25 46.7 35.4l4 4L61.4 29l-4-4ZM36 46 25.3 56.4l4 4L40 50l-4-4ZM50.5 18.4 40 28.8l4 4 10.6-10.3-4-4ZM29.2 39.4 18.7 49.8l4 4 10.6-10.4-4-4ZM22.8 25l-4.1 4 10.5 10.4 4-4L22.9 25ZM29.5 18.4l-4.1 4 10.5 10.4 4-4-10.4-10.4ZM50.8 39.4l-4.1 4 10.5 10.4 4-4-10.4-10.4ZM44 46l-4 4 10.5 10.4 4.1-4L44.1 46Z"/><path fill="#EFEFEF" d="m54.6 64.4-4-4L40 70.8 29.5 60.4l-4.1 4L40 78.8l14.6-14.4ZM18.7 29l-4-4L0 39.4l14.6 14.4 4-4L8.2 39.4 18.7 29ZM65.4 25l-4 4 10.5 10.4-10.6 10.4 4 4L80 39.4 65.4 25ZM50.5 18.4l4.1-4L40 0 25.4 14.4l4 4L40 8l10.5 10.4Z"/></g><path fill="#F13C6E" d="M102.3 53.2V28h9c3 0 5.4.6 7 1.8a6 6 0 0 1 2.4 5.1 5.6 5.6 0 0 1-3.7 5.3c1.4.4 2.4 1 3.2 2 .7 1 1.1 2.2 1.1 3.6 0 2.4-.8 4.3-2.4 5.5a10.7 10.7 0 0 1-6.7 2h-10Zm5.3-11V49h4.5c1.2 0 2.2-.3 2.9-.8a3 3 0 0 0 1-2.5c0-2.3-1.2-3.4-3.6-3.5h-4.8Zm0-3.6h3.9c2.6 0 4-1.1 4-3.2 0-1.1-.4-2-1-2.4-.7-.5-1.8-.8-3.3-.8h-3.6v6.4ZM144.3 42.3h-10.1V49H146v4.2H129V28H146v4.2h-11.8v6h10v4ZM167.2 48h-9.3l-1.7 5.2h-5.6L160 28h4.9l9.6 25.2H169l-1.8-5.2Zm-7.8-4.2h6.4l-3.3-9.4-3.1 9.4ZM199.6 28v16.6c0 2.8-.9 5-2.6 6.6a10.2 10.2 0 0 1-7.2 2.4c-3 0-5.4-.8-7.1-2.4a8.3 8.3 0 0 1-2.7-6.4V28h5.3v16.6c0 1.7.4 2.9 1.2 3.7.8.7 1.9 1 3.3 1 3 0 4.5-1.5 4.5-4.5V28h5.3ZM226.8 32.2H219v21h-5.3v-21h-7.8V28h20.9v4.2ZM242.5 39.4l5.3-11.4h5.8l-8.4 16v9.2H240v-9.1L231.4 28h5.8l5.3 11.4Z"/><defs><clipPath id="a"><path fill="#fff" d="M0 0h80v78.8H0z"/></clipPath></defs></svg>